{
  "accessors": [
    {
      "bufferView": 2,
      "componentType": 5126,
      "count": 625,
      "max": [
        0.41083985567092896,
        0.4008263945579529,
        0.42458441853523254
      ],
      "min": [
        -0.4069153964519501,
        -0.4050913453102112,
        -0.42158156633377075
      ],
      "type": "VEC3"
    },
    {
      "bufferView": 2,
      "byteOffset": 7500,
      "componentType": 5126,
      "count": 625,
      "max": [
        0.999607503414154,
        0.9993816018104553,
        0.9999992251396179
      ],
      "min": [
        -0.9996759295463562,
        -1.0,
        -0.9972419142723083
      ],
      "type": "VEC3"
    },
    {
      "bufferView": 1,
      "componentType": 5126,
      "count": 625,
      "max": [
        0.9980080723762512,
        0.9938259124755859
      ],
      "min": [
        0.0019920319318771362,
        0.0019836844876408577
      ],
      "type": "VEC2"
    },
    {
      "bufferView": 1,
      "byteOffset": 5000,
      "componentType": 5126,
      "count": 625,
      "max": [
        0.9980080723762512,
        0.9938259124755859
      ],
      "min": [
        0.0019920319318771362,
        0.0019836844876408577
      ],
      "type": "VEC2"
    },
    {
      "bufferView": 0,
      "componentType": 5125,
      "count": 2592,
      "type": "SCALAR"
    },
    {
      "bufferView": 2,
      "byteOffset": 15000,
      "componentType": 5126,
      "count": 1408,
      "max": [
        0.41083985567092896,
        0.4008263945579529,
        0.42458438873291016
      ],
      "min": [
        -0.4069153666496277,
        -0.4040500521659851,
        -0.4215816259384155
      ],
      "type": "VEC3"
    },
    {
      "bufferView": 2,
      "byteOffset": 31896,
      "componentType": 5126,
      "count": 1408,
      "max": [
        0.9999914765357971,
        0.9993336200714111,
        0.9995306134223938
      ],
      "min": [
        -0.9959598779678345,
        -0.99909508228302,
        -0.9972418546676636
      ],
      "type": "VEC3"
    },
    {
      "bufferView": 1,
      "byteOffset": 10000,
      "componentType": 5126,
      "count": 1408,
      "max": [
        0.9980080723762512,
        0.9938753843307495
      ],
      "min": [
        0.0019920319318771362,
        0.0019836844876408577
      ],
      "type": "VEC2"
    },
    {
      "bufferView": 1,
      "byteOffset": 21264,
      "componentType": 5126,
      "count": 1408,
      "max": [
        0.9980080723762512,
        0.9938753843307495
      ],
      "min": [
        0.0019920319318771362,
        0.0019836844876408577
      ],
      "type": "VEC2"
    },
    {
      "bufferView": 0,
      "byteOffset": 10368,
      "componentType": 5125,
      "count": 3666,
      "type": "SCALAR"
    },
    {
      "bufferView": 2,
      "byteOffset": 48792,
      "componentType": 5126,
      "count": 202,
      "max": [
        0.44862523674964905,
        0.39578863978385925,
        0.1047249287366867
      ],
      "min": [
        0.009394766762852669,
        0.14700543880462646,
        -0.12952381372451782
      ],
      "type": "VEC3"
    },
    {
      "bufferView": 2,
      "byteOffset": 51216,
      "componentType": 5126,
      "count": 202,
      "max": [
        0.9551472663879395,
        0.9959827065467834,
        1.0
      ],
      "min": [
        -0.9984392523765564,
        -0.9959827065467834,
        -1.0
      ],
      "type": "VEC3"
    },
    {
      "bufferView": 1,
      "byteOffset": 32528,
      "componentType": 5126,
      "count": 202,
      "max": [
        0.9528971910476685,
        0.244843989610672
      ],
      "min": [
        0.7388910055160522,
        0.0019836723804473877
      ],
      "type": "VEC2"
    },
    {
      "bufferView": 1,
      "byteOffset": 34144,
      "componentType": 5126,
      "count": 202,
      "max": [
        0.9528971910476685,
        0.244843989610672
      ],
      "min": [
        0.7388910055160522,
        0.0019836723804473877
      ],
      "type": "VEC2"
    },
    {
      "bufferView": 0,
      "byteOffset": 25032,
      "componentType": 5125,
      "count": 552,
      "type": "SCALAR"
    },
    {
      "bufferView": 2,
      "byteOffset": 53640,
      "componentType": 5126,
      "count": 202,
      "max": [
        0.44862523674964905,
        0.39578863978385925,
        0.1047249287366867
      ],
      "min": [
        0.009394766762852669,
        0.14700543880462646,
        -0.12952381372451782
      ],
      "type": "VEC3"
    },
    {
      "bufferView": 2,
      "byteOffset": 56064,
      "componentType": 5126,
      "count": 202,
      "max": [
        0.9551472663879395,
        0.9959827065467834,
        1.0
      ],
      "min": [
        -0.9984392523765564,
        -0.9959827065467834,
        -1.0
      ],
      "type": "VEC3"
    },
    {
      "bufferView": 1,
      "byteOffset": 35760,
      "componentType": 5126,
      "count": 202,
      "max": [
        0.9528971910476685,
        0.244843989610672
      ],
      "min": [
        0.7388910055160522,
        0.0019836723804473877
      ],
      "type": "VEC2"
    },
    {
      "bufferView": 1,
      "byteOffset": 37376,
      "componentType": 5126,
      "count": 202,
      "max": [
        0.9528971910476685,
        0.244843989610672
      ],
      "min": [
        0.7388910055160522,
        0.0019836723804473877
      ],
      "type": "VEC2"
    },
    {
      "bufferView": 0,
      "byteOffset": 27240,
      "componentType": 5125,
      "count": 552,
      "type": "SCALAR"
    },
    {
      "bufferView": 2,
      "byteOffset": 58488,
      "componentType": 5126,
      "count": 655,
      "max": [
        0.1057264432311058,
        0.4008263945579529,
        0.42458438873291016
      ],
      "min": [
        -0.4069153070449829,
        -0.3976590633392334,
        -0.418748140335083
      ],
      "type": "VEC3"
    },
    {
      "bufferView": 2,
      "byteOffset": 66348,
      "componentType": 5126,
      "count": 655,
      "max": [
        0.9999873042106628,
        0.9997571110725403,
        0.9920524954795837
      ],
      "min": [
        -0.9940767884254456,
        -0.9946314692497253,
        -0.9917044043540955
      ],
      "type": "VEC3"
    },
    {
      "bufferView": 1,
      "byteOffset": 38992,
      "componentType": 5126,
      "count": 655,
      "max": [
        0.9980080723762512,
        0.9938753843307495
      ],
      "min": [
        0.0019920319318771362,
        0.0019836844876408577
      ],
      "type": "VEC2"
    },
    {
      "bufferView": 1,
      "byteOffset": 44232,
      "componentType": 5126,
      "count": 655,
      "max": [
        0.9980080723762512,
        0.9938753843307495
      ],
      "min": [
        0.0019920319318771362,
        0.0019836844876408577
      ],
      "type": "VEC2"
    },
    {
      "bufferView": 0,
      "byteOffset": 29448,
      "componentType": 5125,
      "count": 3282,
      "type": "SCALAR"
    },
    {
      "bufferView": 2,
      "byteOffset": 74208,
      "componentType": 5126,
      "count": 306,
      "max": [
        0.3089464008808136,
        0.3379403352737427,
        0.42458438873291016
      ],
      "min": [
        -0.006806671619415283,
        -0.4040500521659851,
        -0.000779956579208374
      ],
      "type": "VEC3"
    },
    {
      "bufferView": 2,
      "byteOffset": 77880,
      "componentType": 5126,
      "count": 306,
      "max": [
        0.9486175179481506,
        0.9966437220573425,
        0.997355043888092
      ],
      "min": [
        -0.9991205930709839,
        -0.9936730265617371,
        -0.997329592704773
      ],
      "type": "VEC3"
    },
    {
      "bufferView": 1,
      "byteOffset": 49472,
      "componentType": 5126,
      "count": 306,
      "max": [
        0.8622287511825562,
        0.9908197522163391
      ],
      "min": [
        0.3334445357322693,
        -0.007737394887953997
      ],
      "type": "VEC2"
    },
    {
      "bufferView": 1,
      "byteOffset": 51920,
      "componentType": 5126,
      "count": 306,
      "max": [
        0.8622287511825562,
        0.9908197522163391
      ],
      "min": [
        0.3334445357322693,
        -0.007737394887953997
      ],
      "type": "VEC2"
    },
    {
      "bufferView": 0,
      "byteOffset": 42576,
      "componentType": 5125,
      "count": 1566,
      "type": "SCALAR"
    }
  ],
  "asset": {
    "extras": {
      "author": "Amphivena (https://sketchfab.com/Amphivena)",
      "license": "CC-BY-NC-4.0 (http://creativecommons.org/licenses/by-nc/4.0/)",
      "source": "https://sketchfab.com/3d-models/peaches-6b85ce0741944f069cb7bd6c06177ba2",
      "title": "Peaches"
    },
    "generator": "Sketchfab-12.66.0",
    "version": "2.0"
  },
  "bufferViews": [
    {
      "buffer": 0,
      "byteLength": 48840,
      "name": "floatBufferViews",
      "target": 34963
    },
    {
      "buffer": 0,
      "byteLength": 54368,
      "byteOffset": 48840,
      "byteStride": 8,
      "name": "floatBufferViews",
      "target": 34962
    },
    {
      "buffer": 0,
      "byteLength": 81552,
      "byteOffset": 103208,
      "byteStride": 12,
      "name": "floatBufferViews",
      "target": 34962
    }
  ],
  "buffers": [
    {
      "byteLength": 184760,
      "uri": "scene.bin"
    }
  ],
  "images": [
    {
      "uri": "textures/peachblinn1_baseColor.png"
    }
  ],
  "materials": [
    {
      "name": "peachblinn1",
      "pbrMetallicRoughness": {
        "baseColorFactor": [
          0.8,
          0.8,
          0.8,
          1.0
        ],
        "baseColorTexture": {
          "index": 0
        },
        "metallicFactor": 0.0,
        "roughnessFactor": 0.6
      }
    }
  ],
  "meshes": [
    {
      "name": "peach:pCube1_peach:blinn1_0",
      "primitives": [
        {
          "attributes": {
            "NORMAL": 1,
            "POSITION": 0,
            "TEXCOORD_0": 2,
            "TEXCOORD_1": 3
          },
          "indices": 4,
          "material": 0,
          "mode": 4
        }
      ]
    },
    {
      "name": "peach:polySurface1_peach:blinn1_0",
      "primitives": [
        {
          "attributes": {
            "NORMAL": 6,
            "POSITION": 5,
            "TEXCOORD_0": 7,
            "TEXCOORD_1": 8
          },
          "indices": 9,
          "material": 0,
          "mode": 4
        }
      ]
    },
    {
      "name": "peach:pPlane5_peach:blinn1_0",
      "primitives": [
        {
          "attributes": {
            "NORMAL": 11,
            "POSITION": 10,
            "TEXCOORD_0": 12,
            "TEXCOORD_1": 13
          },
          "indices": 14,
          "material": 0,
          "mode": 4
        }
      ]
    },
    {
      "name": "peach:pPlane6_peach:blinn1_0",
      "primitives": [
        {
          "attributes": {
            "NORMAL": 16,
            "POSITION": 15,
            "TEXCOORD_0": 17,
            "TEXCOORD_1": 18
          },
          "indices": 19,
          "material": 0,
          "mode": 4
        }
      ]
    },
    {
      "name": "peach:polySurface3_peach:blinn1_0",
      "primitives": [
        {
          "attributes": {
            "NORMAL": 21,
            "POSITION": 20,
            "TEXCOORD_0": 22,
            "TEXCOORD_1": 23
          },
          "indices": 24,
          "material": 0,
          "mode": 4
        }
      ]
    },
    {
      "name": "peach:polySurface2_peach:blinn1_0",
      "primitives": [
        {
          "attributes": {
            "NORMAL": 26,
            "POSITION": 25,
            "TEXCOORD_0": 27,
            "TEXCOORD_1": 28
          },
          "indices": 29,
          "material": 0,
          "mode": 4
        }
      ]
    }
  ],
  "nodes": [
    {
      "children": [
        1
      ],
      "matrix": [
        1.0,
        0.0,
        0.0,
        0.0,
        0.0,
        2.220446049250313e-16,
        -1.0,
        0.0,
        0.0,
        1.0,
        2.220446049250313e-16,
        0.0,
        0.0,
        0.0,
        0.0,
        1.0
      ],
      "name": "Sketchfab_model"
    },
    {
      "children": [
        2
      ],
      "matrix": [
        1.0,
        0.0,
        0.0,
        0.0,
        0.0,
        0.0,
        1.0,
        0.0,
        0.0,
        -1.0,
        0.0,
        0.0,
        0.0,
        0.0,
        0.0,
        1.0
      ],
      "name": "00cd1ed5383c498985130ced1430b7e1.fbx"
    },
    {
      "children": [
        3
      ],
      "name": "RootNode"
    },
    {
      "children": [
        4
      ],
      "matrix": [
        1.76591956615448,
        0.0,
        0.0,
        0.0,
        0.0,
        1.76591956615448,
        0.0,
        0.0,
        0.0,
        0.0,
        1.76591956615448,
        0.0,
        0.1629224568605423,
        -0.116856649518013,
        1.3967617750167847,
        1.0
      ],
      "name": "group"
    },
    {
      "children": [
        5,
        7,
        13,
        15
      ],
      "matrix": [
        1.0,
        0.0,
        0.0,
        0.0,
        0.0,
        1.0,
        0.0,
        0.0,
        0.0,
        0.0,
        1.0,
        0.0,
        -0.07987140864133835,
        0.0,
        -2.2974627017974854,
        1.0
      ],
      "name": "group1"
    },
    {
      "children": [
        6
      ],
      "matrix": [
        -0.7577043255576994,
        -0.6289919671795734,
        -0.1739346436300782,
        0.0,
        -0.62505892467753,
        0.6228700479249324,
        0.47046173497848076,
        0.0,
        -0.18757797235315687,
        0.46519029291416103,
        -0.8651083722091213,
        0.0,
        0.9900031089782715,
        0.45548781752586365,
        1.1745545864105225,
        1.0
      ],
      "name": "peach:pCube1"
    },
    {
      "mesh": 0,
      "name": "peach:pCube1_peach:blinn1_0"
    },
    {
      "children": [
        8,
        9,
        11
      ],
      "matrix": [
        -0.12204967512730969,
        0.3071366431891132,
        0.9438066323203294,
        0.0,
        0.9293142004566046,
        0.3692900172353726,
        2.1094237467877974e-15,
        0.0,
        -0.3485383675164328,
        0.8770929059004078,
        -0.33049817062755205,
        0.0,
        -0.3336299657821655,
        0.11618685722351074,
        2.126100778579712,
        1.0
      ],
      "name": "peach:polySurface1"
    },
    {
      "mesh": 1,
      "name": "peach:polySurface1_peach:blinn1_0"
    },
    {
      "children": [
        10
      ],
      "matrix": [
        0.8824615826574368,
        3.8820853611150326e-17,
        -0.9938663393016325,
        0.0,
        -4.9353022558881575e-18,
        1.0,
        3.467834416823562e-17,
        0.0,
        0.7477735271208733,
        -1.933433271850384e-17,
        0.6639538780195569,
        0.0,
        -0.012287020683288574,
        0.0,
        0.013982388190925121,
        1.0
      ],
      "name": "peach:pPlane5"
    },
    {
      "mesh": 2,
      "name": "peach:pPlane5_peach:blinn1_0"
    },
    {
      "children": [
        12
      ],
      "matrix": [
        0.3547913088277567,
        -1.1621987671724543,
        0.5384476743623383,
        0.0,
        0.5755477485574129,
        0.4818261377502131,
        0.6607483349288181,
        0.0,
        -0.7729730651062294,
        0.0567862002841944,
        0.6318923706435805,
        0.0,
        -0.7598456740379333,
        0.7121893167495728,
        -0.44122445583343506,
        1.0
      ],
      "name": "peach:pPlane6"
    },
    {
      "mesh": 3,
      "name": "peach:pPlane6_peach:blinn1_0"
    },
    {
      "children": [
        14
      ],
      "matrix": [
        0.01648442849359799,
        0.972323952358476,
        -0.23305448995295355,
        0.0,
        -0.9998563180487173,
        0.01695120226007729,
        2.7755575615628914e-17,
        0.0,
        0.0035250636502145234,
        0.2079237276574605,
        0.8677255236125685,
        0.0,
        0.8595571517944336,
        0.25067397952079773,
        2.1981682777404785,
        1.0
      ],
      "name": "peach:polySurface3"
    },
    {
      "mesh": 4,
      "name": "peach:polySurface3_peach:blinn1_0"
    },
    {
      "children": [
        16
      ],
      "matrix": [
        0.6201078325493762,
        0.5677115988119571,
        -0.5414515828634047,
        0.0,
        0.539536601903524,
        0.1924299716084411,
        0.8196773519093796,
        0.0,
        0.5695318526801755,
        -0.8004212931957433,
        -0.18697385427257163,
        0.0,
        -0.20683275163173676,
        0.2772747576236725,
        1.3654077053070068,
        1.0
      ],
      "name": "peach:polySurface2"
    },
    {
      "mesh": 5,
      "name": "peach:polySurface2_peach:blinn1_0"
    }
  ],
  "samplers": [
    {
      "magFilter": 9729,
      "minFilter": 9987,
      "wrapS": 10497,
      "wrapT": 10497
    }
  ],
  "scene": 0,
  "scenes": [
    {
      "name": "Sketchfab_Scene",
      "nodes": [
        0
      ]
    }
  ],
  "textures": [
    {
      "sampler": 0,
      "source": 0
    }
  ]
}
