{
  "accessors": [
    {
      "bufferView": 2,
      "componentType": 5126,
      "count": 7214,
      "max": [
        0.2916660010814667,
        0.2916660010814667,
        0.6867499947547913
      ],
      "min": [
        -0.2916660010814667,
        -0.2916660010814667,
        -0.01075000036507845
      ],
      "type": "VEC3"
    },
    {
      "bufferView": 2,
      "byteOffset": 86568,
      "componentType": 5126,
      "count": 7214,
      "max": [
        0.9999917149543762,
        0.9999917149543762,
        1.0
      ],
      "min": [
        -0.999991774559021,
        -0.9999917149543762,
        -1.0
      ],
      "type": "VEC3"
    },
    {
      "bufferView": 1,
      "componentType": 5126,
      "count": 7214,
      "max": [
        1.0,
        1.0
      ],
      "min": [
        0.0,
        0.0
      ],
      "type": "VEC2"
    },
    {
      "bufferView": 0,
      "componentType": 5125,
      "count": 37728,
      "type": "SCALAR"
    }
  ],
  "asset": {
    "extras": {
      "author": "leoni (https://sketchfab.com/leoni)",
      "license": "CC-BY-4.0 (http://creativecommons.org/licenses/by/4.0/)",
      "source": "https://sketchfab.com/3d-models/vase-312682dea1ee45fea02375f52a6b11c7",
      "title": "Vase"
    },
    "generator": "Sketchfab-15.27.0",
    "version": "2.0"
  },
  "bufferViews": [
    {
      "buffer": 0,
      "byteLength": 150912,
      "name": "floatBufferViews",
      "target": 34963
    },
    {
      "buffer": 0,
      "byteLength": 57712,
      "byteOffset": 150912,
      "byteStride": 8,
      "name": "floatBufferViews",
      "target": 34962
    },
    {
      "buffer": 0,
      "byteLength": 173136,
      "byteOffset": 208624,
      "byteStride": 12,
      "name": "floatBufferViews",
      "target": 34962
    }
  ],
  "buffers": [
    {
      "byteLength": 381760,
      "uri": "scene.bin"
    }
  ],
  "materials": [
    {
      "alphaMode": "BLEND",
      "name": "null",
      "pbrMetallicRoughness": {
        "baseColorFactor": [
          0.013487,
          0.0804465136,
          0.0001075917,
          0.64
        ],
        "metallicFactor": 0.0,
        "roughnessFactor": 0.4
      }
    }
  ],
  "meshes": [
    {
      "name": "Object_0",
      "primitives": [
        {
          "attributes": {
            "NORMAL": 1,
            "POSITION": 0,
            "TEXCOORD_0": 2
          },
          "indices": 3,
          "material": 0,
          "mode": 4
        }
      ]
    }
  ],
  "nodes": [
    {
      "children": [
        1
      ],
      "matrix": [
        1.0,
        0.0,
        0.0,
        0.0,
        0.0,
        2.220446049250313e-16,
        -1.0,
        0.0,
        0.0,
        1.0,
        2.220446049250313e-16,
        0.0,
        0.0,
        0.0,
        0.0,
        1.0
      ],
      "name": "Sketchfab_model"
    },
    {
      "children": [
        2
      ],
      "name": "vase.obj.cleaner.materialmerger.gles"
    },
    {
      "mesh": 0,
      "name": "Object_2"
    }
  ],
  "scene": 0,
  "scenes": [
    {
      "name": "Sketchfab_Scene",
      "nodes": [
        0
      ]
    }
  ]
}
