{
  "accessors": [
    {
      "bufferView": 2,
      "componentType": 5126,
      "count": 905,
      "max": [
        4.106790065765381,
        10.012598991394043,
        1.6487849950790405
      ],
      "min": [
        -2.3907039165496826,
        3.9588229656219482,
        -4.500669956207275
      ],
      "type": "VEC3"
    },
    {
      "bufferView": 2,
      "byteOffset": 10860,
      "componentType": 5126,
      "count": 905,
      "max": [
        0.9978892803192139,
        0.9911081790924072,
        0.9435690641403198
      ],
      "min": [
        -0.9988436698913574,
        -0.9911081790924072,
        -0.929518461227417
      ],
      "type": "VEC3"
    },
    {
      "bufferView": 1,
      "componentType": 5126,
      "count": 905,
      "max": [
        1.8615488678432806e+34,
        1.8610514635354957e+34
      ],
      "min": [
        -1.521218317493207e+19,
        0.0
      ],
      "type": "VEC2"
    },
    {
      "bufferView": 0,
      "componentType": 5125,
      "count": 912,
      "type": "SCALAR"
    },
    {
      "bufferView": 2,
      "byteOffset": 21720,
      "componentType": 5126,
      "count": 5280,
      "max": [
        2.574389934539795,
        7.63970422744751,
        2.7806780338287354
      ],
      "min": [
        -2.845151901245117,
        0.17081399261951447,
        -3.1146109104156494
      ],
      "type": "VEC3"
    },
    {
      "bufferView": 2,
      "byteOffset": 85080,
      "componentType": 5126,
      "count": 5280,
      "max": [
        0.9964064359664917,
        0.9997403025627136,
        0.9992735385894775
      ],
      "min": [
        -0.9964064359664917,
        -0.9997403025627136,
        -0.9991745948791504
      ],
      "type": "VEC3"
    },
    {
      "bufferView": 1,
      "byteOffset": 7240,
      "componentType": 5126,
      "count": 5280,
      "max": [
        7.205959024599219e+31,
        7.5550769749204825e+31
      ],
      "min": [
        -2.3413449202606277e+19,
        -0.9988436698913574
      ],
      "type": "VEC2"
    },
    {
      "bufferView": 0,
      "byteOffset": 3648,
      "componentType": 5125,
      "count": 5280,
      "type": "SCALAR"
    }
  ],
  "asset": {
    "extras": {
      "author": "IronEqual (https://sketchfab.com/ie-niels)",
      "license": "CC-BY-4.0 (http://creativecommons.org/licenses/by/4.0/)",
      "source": "https://sketchfab.com/3d-models/grapes-from-poly-by-google-55c815ee24724611a0b58dd59cd482cb",
      "title": "Grapes from Poly by Google"
    },
    "generator": "Sketchfab-12.65.0",
    "version": "2.0"
  },
  "bufferViews": [
    {
      "buffer": 0,
      "byteLength": 24768,
      "name": "floatBufferViews",
      "target": 34963
    },
    {
      "buffer": 0,
      "byteLength": 49480,
      "byteOffset": 24768,
      "byteStride": 8,
      "name": "floatBufferViews",
      "target": 34962
    },
    {
      "buffer": 0,
      "byteLength": 148440,
      "byteOffset": 74248,
      "byteStride": 12,
      "name": "floatBufferViews",
      "target": 34962
    }
  ],
  "buffers": [
    {
      "byteLength": 222688,
      "uri": "scene.bin"
    }
  ],
  "materials": [
    {
      "doubleSided": true,
      "name": "4CAF50",
      "pbrMetallicRoughness": {
        "baseColorFactor": [
          0.298039,
          0.686275,
          0.313726,
          1.0
        ],
        "metallicFactor": 0.0,
        "roughnessFactor": 0.744802
      }
    },
    {
      "doubleSided": true,
      "name": "673AB7",
      "pbrMetallicRoughness": {
        "baseColorFactor": [
          0.403922,
          0.227451,
          0.717647,
          1.0
        ],
        "metallicFactor": 0.0,
        "roughnessFactor": 0.744802
      }
    }
  ],
  "meshes": [
    {
      "name": "Object_0",
      "primitives": [
        {
          "attributes": {
            "NORMAL": 1,
            "POSITION": 0,
            "TEXCOORD_0": 2
          },
          "indices": 3,
          "material": 0,
          "mode": 4
        }
      ]
    },
    {
      "name": "Object_1",
      "primitives": [
        {
          "attributes": {
            "NORMAL": 5,
            "POSITION": 4,
            "TEXCOORD_0": 6
          },
          "indices": 7,
          "material": 1,
          "mode": 4
        }
      ]
    }
  ],
  "nodes": [
    {
      "children": [
        1
      ],
      "matrix": [
        1.0,
        0.0,
        0.0,
        0.0,
        0.0,
        2.220446049250313e-16,
        -1.0,
        0.0,
        0.0,
        1.0,
        2.220446049250313e-16,
        0.0,
        0.0,
        0.0,
        0.0,
        1.0
      ],
      "name": "Sketchfab_model"
    },
    {
      "children": [
        2
      ],
      "name": "root"
    },
    {
      "children": [
        3
      ],
      "matrix": [
        1.0,
        0.0,
        0.0,
        0.0,
        0.0,
        2.220446049250313e-16,
        1.0,
        0.0,
        0.0,
        -1.0,
        2.220446049250313e-16,
        0.0,
        0.0,
        0.0,
        0.0,
        1.0
      ],
      "name": "GLTF_SceneRootNode"
    },
    {
      "children": [
        4,
        5
      ],
      "name": "node-0_0"
    },
    {
      "mesh": 0,
      "name": "Object_4"
    },
    {
      "mesh": 1,
      "name": "Object_5"
    }
  ],
  "scene": 0,
  "scenes": [
    {
      "name": "Sketchfab_Scene",
      "nodes": [
        0
      ]
    }
  ]
}
